<svg xmlns="http://www.w3.org/2000/svg" version="1.1" xmlns:xlink="http://www.w3.org/1999/xlink" width="1000" height="1000"><g clip-path="url(#SvgjsClipPath1074)"><rect width="1000" height="1000" fill="#ffffff"></rect><g transform="matrix(8.333333333333334,0,0,8.333333333333334,100,100)"><svg xmlns="http://www.w3.org/2000/svg" version="1.1" xmlns:xlink="http://www.w3.org/1999/xlink" width="96" height="96"><svg xmlns="http://www.w3.org/2000/svg" width="96" height="96">
<path style="fill:#fefefe; stroke:none;" d="M0 0L0 66L1 66C5.11162 61.0031 9.581 58.0718 16 57C14.4117 51.949 9.8095 48.2582 8.87719 43C6.49207 29.5482 17.4237 14.337 32 22C40.9662 14.091 48.5953 14 60 14L65 24L83 20L87.5894 33L80 57C86.3048 58.5248 90.8418 60.9544 95 66L96 66L96 0L0 0z"></path>
<path style="fill:#c06315; stroke:none;" d="M9 38L10 38C13.5355 28.3564 21.1593 30 30 30L31 36L32 36C36.5596 20.5102 59.4041 20.3871 64 36L65 36L66 30C75.2128 30 83.2691 28.3667 86 39L87 39L83 21L65 24L60 14C54.2996 14 47.4775 12.9939 42 14.7748C37.881 16.1141 34.7457 19.6986 30.5676 20.7455C19.1658 23.6023 6.89107 21.4949 9 38z"></path>
<path style="fill:#e4bea0; stroke:none;" d="M18 20L18 21L31 21L18 20M70 20L70 21L83 21L70 20z"></path>
<path style="fill:#f8c23c; stroke:none;" d="M32 36L31 36L30 30C18.2513 30 3.63755 31.8046 10 48C18.8612 50.819 24.4422 56.4544 32 47C35.3697 49.4636 38.8389 51.7091 43 52.5664C54.953 55.0289 68.3563 44.6358 60.2827 32.0147C57.0162 26.9083 41.8395 21.6437 36.4608 25.7478C33.4484 28.0463 32.7489 32.5417 32 36z"></path>
<path style="fill:#f0b421; stroke:none;" d="M51 25L51 26C62.1892 29.5902 66.827 45.2691 54.8844 51.5877C47.5376 55.4748 38.9735 51.3673 33 47L32 47C23.964 54.3178 19.3407 52.7629 11 47C15.7625 62.2205 24.1749 62.1756 32 50L33 50C36.1148 54.7812 42.2509 66.4058 48.9959 65.3225C54.9254 64.3703 59.7602 54.5024 63 50L64 50C66.0477 53.1862 68.3504 58.5775 72.1488 59.9559C77.1023 61.7534 79.8539 56.2547 82.1955 52.9895C87.0631 46.2017 90.5768 33.9094 80 30C83.2578 36.6783 82.8577 55.7873 70.1046 48.8398C60.0715 43.3741 68.7411 21.9284 51 25z"></path>
<path style="fill:#fecc4f; stroke:none;" d="M66 30C65.4495 33.1659 65.3733 35.8132 65.8149 39.0003C66.1213 41.2108 65.9302 43.8078 66.763 45.8988C72.8348 61.1432 95.5236 33.6625 76.9623 30.2159C73.4555 29.5648 69.5568 30 66 30z"></path>
<path style="fill:#deb393; stroke:none;" d="M8.33333 34.6667L8.66667 35.3333L8.33333 34.6667z"></path>
<path style="fill:#d8a68e; stroke:none;" d="M87.3333 34.6667L87.6667 35.3333L87.3333 34.6667z"></path>
<path style="fill:#fefefe; stroke:none;" d="M32 50L28 57L40 59L32 50M63 50L56 60L68 57L63 50z"></path>
<path style="fill:#646dd3; stroke:none;" d="M16 57C13.1787 57.2922 10.572 57.7439 8.00952 59.0556C6.32354 59.9186 4.72212 61.0068 3.40625 62.3783C-9.77614 76.119 18.5788 77.0025 19.9437 71.5877C20.9091 67.7575 16.6557 61.0668 16 57z"></path>
<path style="fill:#ffffff; stroke:none;" d="M16 57L19 69L20 69C20.1038 63.8014 20.1917 60.5265 16 57M27 57L24 67C26.821 64.0982 28.1908 60.9945 27 57z"></path>
<path style="fill:#6a72d6; stroke:none;" d="M28 57L27 65L36 60L28 57z"></path>
<path style="fill:#0f5ea3; stroke:none;" d="M60 59L60 60L69 64L68 57L60 59z"></path>
<path style="fill:#ffffff; stroke:none;" d="M68 57L71 67L72 67C72.1698 62.4595 71.5394 59.9776 68 57M79 57L76 69L77 69L79 57z"></path>
<path style="fill:#15548f; stroke:none;" d="M80 57C79.3443 61.0668 75.0909 67.7575 76.0563 71.5877C77.4431 77.0896 105.868 75.9699 92.5938 62.3957C91.277 61.0492 89.6797 60.0471 87.9905 59.2382C85.4397 58.0167 82.765 57.4471 80 57z"></path>
<path style="fill:#707b85; stroke:none;" d="M39 59C33.8321 61.0374 10.8914 72.9584 22.4124 80.8503C25.5894 83.0265 31.3532 82 35 82C46.0322 82 61.3345 84.768 71.8988 81.5877C77.1552 80.0053 76.0934 73.7504 73.9385 70.0139C70.4447 63.9556 62.9092 59.8193 56 60C55.8777 63.5588 52.662 81.0784 46.4204 77.1754C40.8739 73.7071 41.0557 64.3751 39 59z"></path>
<path style="fill:#edbea6; stroke:none;" d="M21.6667 61.3333L22.3333 61.6667L21.6667 61.3333z"></path>
<path style="fill:#ffffff; stroke:none;" d="M40 61L44 76L45 76L47 66L40 61M55 61L49 66L51 76L52 76L55 61z"></path>
<path style="fill:#edbea6; stroke:none;" d="M73.6667 61.3333L74.3333 61.6667L73.6667 61.3333z"></path>
<path style="fill:#d32f2f; stroke:none;" d="M20 62L21 71L24 62L20 62M72 62L75 71L76 62L72 62z"></path>
<path style="fill:#eba2a2; stroke:none;" d="M20.3333 64.6667L20.6667 65.3333L20.3333 64.6667z"></path>
<path style="fill:#eba3a3; stroke:none;" d="M75 64L75 67L76 67L75 64z"></path>
<path style="fill:#edbea6; stroke:none;" d="M47.6667 66.3333L48.3333 66.6667L47.6667 66.3333z"></path>
<path style="fill:#d32f2f; stroke:none;" d="M45 68L47 80L49 80L51 68L45 68z"></path>
<path style="fill:#fefefe; stroke:none;" d="M0 73L0 96L96 96L96 73L76 74C75.6322 77.5394 74.7833 80.4972 70.9582 81.5877C60.3778 84.604 35.6222 84.604 25.0418 81.5877C21.2167 80.4972 20.3678 77.5394 20 74L0 73z"></path>
<path style="fill:#ca777a; stroke:none;" d="M45 73L45 78L46 78L45 73z"></path>
<path style="fill:#c97779; stroke:none;" d="M50 73L50 78L51 78L50 73z"></path>
</svg></svg></g></g><defs><clipPath id="SvgjsClipPath1074"><rect width="1000" height="1000" x="0" y="0" rx="300" ry="300"></rect></clipPath></defs></svg>